<?xml version="1.0" standalone="no"?>
<!DOCTYPE svg PUBLIC "-//W3C//DTD SVG 20010904//EN"
 "http://www.w3.org/TR/2001/REC-SVG-20010904/DTD/svg10.dtd">
<svg version="1.0" xmlns="http://www.w3.org/2000/svg"
 width="3864.000000pt" height="3771.000000pt" viewBox="0 0 3864.000000 3771.000000"
 preserveAspectRatio="xMidYMid meet">

<g transform="translate(0.000000,3771.000000) scale(0.100000,-0.100000)"
fill="#000000" stroke="none">
<path d="M14145 37689 c-472 -40 -897 -127 -1340 -274 -435 -144 -892 -365
-1284 -622 -578 -378 -1136 -966 -1452 -1528 -301 -537 -483 -1085 -556 -1675
-25 -208 -25 -726 0 -930 48 -385 153 -795 289 -1135 79 -196 218 -484 303
-627 227 -380 559 -776 875 -1040 671 -563 1288 -838 2100 -933 769 -90 1557
82 2132 467 204 136 494 402 638 585 233 294 429 730 513 1138 45 219 52 289
52 545 -1 343 -33 543 -132 835 -231 680 -798 1220 -1411 1345 -289 58 -592
44 -843 -40 -398 -133 -720 -436 -796 -747 -20 -84 -22 -279 -4 -343 16 -56
86 -126 134 -135 51 -10 84 12 226 149 146 141 227 201 343 256 227 106 430
112 718 19 90 -30 226 -98 291 -147 30 -22 98 -84 151 -139 301 -306 418 -587
418 -1007 0 -472 -169 -882 -500 -1214 -347 -349 -768 -527 -1359 -573 -432
-33 -970 88 -1366 309 -547 305 -960 742 -1252 1327 -254 507 -378 1024 -359
1505 26 676 195 1246 511 1725 210 318 423 554 700 775 757 604 1796 952 2770
927 282 -8 455 -30 755 -97 530 -118 887 -242 1275 -444 450 -234 763 -459
1109 -796 261 -254 470 -523 711 -915 193 -313 410 -831 503 -1200 69 -274
152 -717 189 -1015 25 -205 25 -825 0 -1050 -103 -911 -300 -1589 -755 -2610
-148 -332 -202 -444 -377 -775 -266 -505 -557 -1002 -915 -1564 -262 -410
-901 -1361 -1110 -1651 -61 -85 -164 -231 -228 -324 -105 -151 -545 -774 -740
-1046 -42 -58 -182 -253 -312 -435 -130 -181 -299 -419 -376 -527 -306 -433
-575 -804 -899 -1238 -188 -250 -421 -565 -520 -700 -98 -135 -209 -286 -245
-335 -75 -102 -441 -632 -577 -835 -318 -477 -939 -1492 -1192 -1950 -48 -87
-389 -712 -468 -857 -19 -35 -38 -63 -42 -63 -4 0 -20 64 -36 142 -66 346
-225 907 -340 1203 -60 156 -252 572 -348 755 -153 293 -390 667 -564 892
-341 438 -749 849 -1128 1133 -748 561 -1642 905 -2590 997 -203 19 -843 16
-1030 -6 -534 -61 -944 -170 -1450 -386 -336 -143 -778 -405 -1065 -631 -207
-162 -493 -435 -685 -651 -178 -201 -449 -579 -595 -833 -171 -296 -353 -748
-443 -1100 -258 -1009 -197 -1936 191 -2906 224 -561 628 -1167 1038 -1559
331 -316 603 -509 981 -698 539 -270 1033 -393 1630 -409 404 -10 719 37 1108
168 777 262 1392 769 1794 1482 95 168 121 227 186 421 119 355 174 775 146
1111 -42 506 -146 827 -383 1179 -143 214 -268 352 -459 512 -249 207 -576
370 -904 450 -359 88 -772 69 -1145 -52 -131 -43 -335 -142 -460 -225 -196
-130 -441 -414 -555 -642 -136 -276 -173 -647 -94 -952 78 -307 313 -594 553
-677 96 -33 220 -18 291 36 54 41 53 57 -4 151 -130 212 -201 430 -201 617 0
207 69 387 209 545 101 114 186 179 326 248 165 81 265 106 461 112 185 6 251
-2 401 -52 237 -79 415 -203 634 -443 147 -160 237 -340 296 -587 26 -112 28
-134 28 -325 -1 -172 -4 -223 -23 -319 -105 -524 -410 -962 -888 -1275 -271
-177 -518 -273 -839 -327 -106 -18 -173 -22 -360 -23 -241 -1 -315 6 -535 50
-141 28 -381 104 -539 171 -437 182 -868 519 -1178 919 -474 609 -752 1489
-703 2223 22 324 79 622 177 926 80 246 133 376 240 587 180 355 358 603 623
869 410 413 824 686 1321 872 343 129 648 208 939 244 199 25 675 24 870 0
343 -44 725 -146 1044 -279 409 -170 766 -379 1085 -634 173 -137 459 -423
592 -591 303 -380 592 -874 769 -1313 197 -487 293 -827 365 -1284 108 -685
47 -1462 -168 -2156 -86 -279 -377 -1142 -447 -1325 -232 -610 -471 -1423
-609 -2075 -180 -844 -266 -1571 -278 -2325 -12 -800 43 -1424 183 -2055 180
-811 465 -1506 863 -2105 146 -220 151 -234 25 -65 -204 273 -444 672 -593
982 -155 323 -291 700 -386 1066 -32 122 -61 222 -64 222 -3 0 -7 -143 -7
-318 -3 -781 -125 -1667 -319 -2307 -47 -155 -72 -218 -159 -400 -195 -405
-397 -667 -683 -882 -312 -235 -659 -392 -1073 -487 -384 -88 -648 -128 -1309
-201 -435 -49 -481 -55 -581 -86 -122 -39 -143 -59 -166 -157 -50 -210 -30
-893 31 -1038 26 -63 140 -90 425 -104 172 -7 824 2 1005 15 44 3 260 14 480
25 403 20 603 32 860 50 77 5 268 19 425 30 157 11 305 22 330 25 114 13 1253
84 1665 104 821 41 1071 46 2210 46 1154 0 1165 0 2315 -45 257 -11 1092 -60
1355 -80 72 -5 324 -26 560 -45 833 -67 1616 -107 2140 -108 314 -1 339 0 510
26 99 16 185 34 191 40 45 47 84 314 91 619 7 327 -15 489 -76 555 -48 51
-307 109 -936 209 -705 111 -923 153 -1155 219 -63 18 -171 47 -240 63 -153
38 -292 84 -297 98 -5 15 84 75 272 184 372 216 1278 833 1725 1175 102 77
210 159 240 180 111 80 521 393 725 555 116 92 320 252 455 355 209 162 532
416 690 545 172 140 622 494 805 633 121 92 293 223 383 292 155 120 392 293
647 473 66 47 143 101 170 121 144 102 251 171 266 171 17 0 198 -210 537
-625 52 -63 185 -223 462 -556 58 -69 155 -186 216 -260 111 -133 191 -229
524 -625 96 -114 204 -244 239 -288 189 -237 627 -748 931 -1086 407 -453 780
-824 1070 -1065 581 -481 1024 -739 1801 -1049 1262 -503 2737 -793 4829 -951
465 -35 1130 -67 1775 -85 1108 -31 2689 24 3024 107 124 30 160 58 191 145
34 97 42 177 47 463 8 424 -12 556 -88 602 -77 47 -265 87 -869 183 -368 59
-585 98 -800 145 -85 18 -171 36 -190 40 -58 12 -472 132 -624 181 -262 86
-509 189 -866 361 -675 326 -1410 828 -2200 1502 -391 333 -969 885 -1640
1567 -228 232 -310 319 -805 858 -170 186 -420 458 -555 605 -135 146 -326
355 -425 465 -98 109 -231 253 -294 320 -64 67 -195 207 -291 311 -96 104
-225 241 -286 305 -119 124 -144 158 -122 164 7 2 144 12 303 23 391 24 1049
25 1355 0 1062 -86 2030 -276 3025 -592 116 -37 218 -69 228 -72 16 -5 17 -90
17 -1599 l0 -1594 540 0 540 0 0 1396 c0 1113 3 1395 13 1391 53 -23 457 -201
517 -229 103 -47 491 -256 707 -380 450 -258 931 -571 1293 -843 418 -313 455
-343 786 -626 l241 -207 6 -288 c4 -158 7 -762 7 -1343 l0 -1056 518 -172
c284 -95 523 -174 529 -175 10 -2 13 1306 13 6322 0 5890 3 6640 25 6846 5 45
14 61 63 117 31 36 129 151 216 254 87 103 215 245 283 314 l125 126 -81 199
c-45 109 -118 291 -163 404 -44 113 -169 426 -278 695 -108 270 -223 558 -255
640 -31 83 -135 346 -230 585 -95 239 -189 479 -210 533 -21 53 -41 97 -45 97
-4 0 -23 -42 -42 -92 -20 -51 -97 -248 -171 -438 -74 -190 -162 -419 -195
-510 -33 -91 -161 -421 -284 -735 -239 -606 -421 -1072 -499 -1272 l-47 -121
45 -44 c25 -23 118 -122 207 -217 88 -96 230 -246 314 -333 l152 -159 0 -632
c-1 -642 -2 -669 -36 -666 -5 0 -38 33 -74 73 -369 412 -764 792 -1216 1170
-146 122 -556 442 -709 553 -390 283 -1072 720 -1446 926 -36 20 -71 43 -78
50 -9 11 -11 355 -9 1433 l3 1419 50 80 c27 44 94 127 150 185 74 78 409 478
506 606 5 6 -11 62 -37 130 -25 65 -77 207 -116 314 -117 330 -243 677 -312
860 -65 177 -228 620 -426 1160 -59 162 -147 413 -194 557 -48 145 -91 265
-95 268 -5 2 -41 -80 -81 -183 -262 -680 -674 -1731 -907 -2312 -233 -584
-285 -722 -297 -797 -4 -25 0 -36 20 -55 14 -13 107 -129 206 -258 100 -129
207 -264 238 -300 88 -102 175 -211 203 -257 l27 -43 0 -1130 c0 -733 -3
-1130 -10 -1130 -5 0 -49 18 -97 41 -120 56 -499 228 -625 285 -164 73 -291
122 -473 184 -93 32 -282 99 -420 150 -276 101 -665 232 -905 305 -85 26 -156
48 -157 49 -2 1 -17 49 -34 107 -44 148 -240 648 -318 814 -476 997 -1203
1950 -2056 2696 -152 133 -250 213 -355 291 -41 30 -103 82 -138 114 l-63 59
-139 405 c-76 223 -177 513 -225 645 -134 370 -236 664 -294 843 -29 90 -55
161 -59 158 -6 -6 -119 -336 -382 -1111 -66 -194 -103 -289 -112 -288 -7 1
-87 34 -178 73 -549 239 -992 392 -1518 525 -405 102 -1049 211 -1535 260
-374 37 -975 44 -1402 15 -272 -18 -743 -76 -1175 -146 -683 -109 -1428 -318
-2143 -601 -471 -186 -477 -188 -749 -321 -120 -58 -220 -103 -223 -100 -3 3
19 41 50 84 30 44 119 171 196 284 78 113 199 284 269 380 744 1025 1581 2337
2046 3205 213 399 461 923 649 1375 234 560 419 1146 564 1786 145 638 212
1163 227 1784 13 576 -54 1130 -217 1771 -153 607 -432 1234 -782 1759 -326
489 -657 864 -1082 1224 -438 371 -896 654 -1465 904 -555 243 -1130 394
-1741 458 -183 19 -837 27 -1004 13z m7775 -14944 c680 -60 1238 -174 1855
-380 410 -137 836 -332 1088 -499 108 -70 108 -71 104 -106 -4 -33 -76 -228
-260 -710 -41 -107 -84 -225 -96 -262 l-22 -67 22 -43 c46 -90 270 -363 470
-573 119 -125 125 -134 154 -215 l30 -85 2 -457 1 -458 -496 0 c-826 0 -1318
-31 -1942 -121 -341 -49 -329 -47 -970 -184 -236 -51 -438 -100 -600 -146
-136 -39 -621 -198 -775 -254 -233 -84 -619 -247 -781 -328 -60 -30 -191 -87
-201 -87 -27 0 174 298 338 502 73 90 184 228 247 308 222 279 426 532 684
847 84 103 169 208 188 233 19 25 118 149 221 275 103 127 277 340 386 475
183 225 649 793 903 1100 58 69 153 185 212 256 58 71 177 214 263 319 l157
189 -103 22 c-57 13 -189 41 -292 64 -366 80 -843 148 -1202 171 -283 19 -618
2 -1013 -52 l-83 -11 -83 -97 c-46 -53 -150 -180 -230 -281 -81 -102 -205
-257 -276 -345 -71 -88 -211 -263 -312 -390 -222 -278 -499 -621 -620 -767
-49 -59 -112 -136 -141 -172 -29 -36 -124 -154 -211 -263 -88 -109 -300 -373
-471 -588 -818 -1025 -1051 -1315 -1250 -1555 -126 -151 -245 -298 -328 -403
-98 -125 -242 -395 -301 -564 -42 -122 -87 -303 -116 -468 -12 -66 -25 -123
-29 -128 -4 -4 -49 -19 -99 -32 -234 -63 -916 -332 -1197 -472 -71 -36 -175
-91 -230 -123 -55 -31 -140 -79 -190 -105 -122 -66 -353 -205 -448 -271 -43
-30 -149 -99 -234 -155 -151 -98 -455 -322 -769 -566 -137 -107 -214 -171
-495 -413 -226 -195 -736 -690 -881 -856 -29 -34 -105 -119 -169 -190 -220
-246 -529 -646 -678 -877 -31 -49 -96 -150 -145 -225 -170 -263 -390 -678
-518 -981 -22 -53 -80 -188 -128 -301 -47 -113 -99 -239 -113 -280 -96 -274
-231 -790 -306 -1170 -64 -326 -97 -589 -133 -1060 -17 -219 -17 -877 0 -1040
16 -153 59 -501 73 -590 74 -453 114 -626 233 -983 113 -338 281 -708 453
-989 211 -349 336 -513 562 -739 515 -515 1128 -837 1776 -933 245 -37 595
-52 850 -37 232 13 480 44 490 61 3 4 -8 37 -24 72 -42 91 -133 388 -170 548
-68 301 -132 640 -138 727 l-6 92 -46 5 c-25 3 -77 8 -116 11 -194 18 -456 95
-660 194 -415 203 -733 530 -955 986 -168 344 -238 676 -227 1080 15 545 169
1023 482 1495 302 455 830 863 1366 1054 l136 48 6 277 c4 152 10 1345 13
2651 6 2081 8 2377 21 2392 23 25 106 39 418 68 387 35 948 38 1088 6 92 -21
108 -32 213 -133 103 -101 77 -69 761 -923 285 -355 635 -789 779 -966 287
-353 317 -390 419 -520 38 -49 153 -190 255 -314 300 -364 722 -881 1144
-1400 136 -168 275 -339 309 -380 259 -315 656 -808 781 -970 83 -107 196
-249 251 -315 250 -299 354 -425 404 -490 30 -38 120 -148 200 -244 195 -233
552 -693 548 -706 -2 -5 -23 -23 -48 -39 -24 -16 -118 -81 -209 -145 -91 -63
-219 -152 -285 -198 -548 -382 -1138 -829 -2164 -1641 -151 -119 -316 -249
-367 -289 -51 -39 -134 -108 -185 -152 -51 -45 -97 -81 -102 -81 -5 0 -6 10
-3 23 91 311 128 740 96 1092 -41 435 -109 745 -231 1052 -231 582 -530 1008
-989 1408 -310 270 -779 514 -1228 640 -198 55 -559 105 -812 112 -390 10
-766 -50 -1106 -178 -330 -124 -573 -267 -797 -467 -387 -348 -642 -775 -772
-1292 -45 -180 -54 -234 -65 -392 -32 -447 115 -997 355 -1320 260 -351 651
-605 1071 -695 119 -25 147 -27 349 -27 191 0 234 3 325 22 421 91 724 293
930 620 96 152 161 348 182 550 21 205 -17 413 -103 559 -46 77 -133 164 -194
194 -64 31 -166 34 -209 5 -28 -18 -28 -20 -23 -85 3 -36 11 -106 17 -156 15
-108 8 -287 -14 -370 -54 -201 -208 -385 -407 -485 -154 -78 -308 -102 -519
-81 -277 27 -461 121 -619 317 -92 115 -148 217 -193 349 -65 195 -82 391 -52
592 38 258 128 465 295 673 372 467 941 697 1579 640 333 -30 591 -104 880
-251 349 -177 637 -437 829 -747 143 -230 243 -460 315 -722 110 -401 124
-712 52 -1130 -101 -587 -331 -1042 -747 -1475 -234 -243 -627 -521 -1004
-711 -452 -227 -862 -355 -1339 -419 -705 -95 -1469 24 -2098 324 -213 102
-316 161 -466 268 -320 228 -590 491 -838 818 -157 206 -362 533 -470 748
-174 345 -382 939 -479 1370 -71 315 -144 813 -166 1139 -13 205 -7 903 10
1118 44 529 158 1151 308 1675 151 530 320 971 540 1410 263 524 492 922 662
1152 36 49 107 144 156 212 234 323 292 391 736 872 226 244 247 266 499 495
524 477 960 823 1439 1143 331 220 399 262 664 410 363 202 467 253 952 471
254 114 313 137 584 230 l256 88 17 101 c42 255 98 426 215 650 46 90 78 161
70 158 -8 -3 -162 -44 -343 -90 -308 -80 -592 -164 -814 -242 -542 -190 -817
-307 -1335 -567 -535 -268 -651 -333 -1095 -612 -344 -215 -638 -430 -1015
-740 -104 -85 -195 -156 -202 -156 -7 0 -9 9 -6 23 25 103 452 922 697 1336
52 88 105 179 117 202 75 148 545 859 782 1184 144 197 230 306 565 723 187
232 661 750 893 977 267 261 725 656 1021 881 79 59 226 165 328 234 102 70
221 151 265 182 107 75 491 309 690 421 344 194 942 476 1325 624 511 198 855
310 1425 462 248 66 356 90 670 151 499 95 727 129 1030 150 174 12 628 4 845
-15z m5124 -2531 c347 -432 677 -956 894 -1419 74 -158 91 -205 74 -205 -24 0
-350 53 -487 80 -194 37 -811 121 -1089 147 l-79 8 -3 430 c-2 237 -3 457 -4
490 0 33 5 95 11 138 11 75 15 82 76 158 102 128 211 257 298 353 l80 88 54
-58 c29 -33 108 -127 175 -210z m-2209 -2364 c110 -5 242 -12 294 -16 l93 -7
15 -36 c35 -83 38 -349 38 -3247 0 -2259 -3 -2834 -13 -2846 -17 -22 -215 -83
-362 -113 -280 -57 -475 -77 -783 -83 -500 -8 -781 33 -1208 177 -212 70 -312
112 -484 201 -239 124 -417 237 -576 366 -176 143 -419 400 -561 594 -349 476
-572 1196 -543 1755 19 382 123 754 288 1034 164 278 437 538 716 680 291 148
546 211 860 211 360 0 745 -157 980 -399 73 -75 175 -203 219 -276 45 -74 108
-238 128 -335 28 -133 24 -327 -9 -460 -34 -139 -74 -253 -131 -376 -36 -80
-46 -112 -46 -154 0 -47 4 -56 35 -86 19 -18 60 -45 90 -60 51 -25 63 -26 143
-21 178 11 339 93 503 256 106 107 184 236 247 411 72 200 92 316 92 532 0
180 -14 278 -65 448 -127 429 -448 834 -891 1122 -83 54 -283 156 -392 199
-345 138 -588 183 -977 183 -365 1 -530 -24 -845 -126 -456 -147 -795 -348
-1142 -675 -157 -147 -242 -244 -343 -389 -229 -327 -380 -675 -480 -1109 -65
-283 -79 -415 -79 -785 -1 -321 5 -411 40 -638 64 -408 211 -843 400 -1186
198 -358 363 -574 674 -887 359 -360 627 -572 989 -779 439 -252 1116 -510
1601 -609 175 -36 464 -78 618 -90 62 -5 116 -11 118 -14 9 -9 -375 -19 -473
-13 -620 41 -1127 150 -1631 352 -707 282 -1264 682 -1743 1254 -259 310 -503
716 -647 1080 -112 284 -216 686 -256 993 -39 294 -45 662 -16 877 6 41 15
118 21 170 43 387 132 709 302 1085 154 341 309 565 586 849 255 261 463 419
774 585 157 84 450 200 617 245 30 8 98 26 150 40 96 26 311 64 495 88 73 9
247 12 645 10 367 -1 617 3 765 12 260 16 877 19 1160 6z m1890 -161 c704
-114 915 -153 1285 -241 118 -28 257 -61 307 -73 51 -11 97 -25 102 -30 12
-12 62 -304 98 -570 24 -178 27 -231 27 -480 1 -273 0 -288 -42 -605 -64 -488
-113 -685 -290 -1188 -57 -161 -121 -305 -225 -502 -187 -358 -375 -629 -679
-982 -229 -267 -611 -613 -863 -784 l-110 -75 -3 2708 c-2 1489 0 2746 3 2792
l7 83 66 -7 c37 -3 180 -24 317 -46z m3284 -805 c208 -71 325 -114 763 -283
458 -176 957 -399 1293 -579 l150 -80 3 -3538 c1 -1946 -2 -3542 -6 -3546 -5
-5 -28 -1 -53 8 -90 32 -1092 277 -1329 324 -228 46 -738 136 -910 160 -338
48 -895 95 -1310 111 -327 12 -982 6 -1288 -12 -189 -11 -487 -39 -667 -64
-153 -20 -202 -20 -209 3 -70 233 -151 1293 -103 1354 6 9 73 49 147 89 448
241 903 544 1229 818 226 190 508 483 742 771 309 380 644 946 819 1385 228
569 354 1025 434 1570 55 374 65 553 63 1113 -1 259 0 472 2 472 3 0 106 -34
230 -76z m3394 -1601 c575 -341 1402 -990 2052 -1609 337 -321 479 -466 747
-764 252 -281 340 -385 537 -638 l111 -144 0 -1471 c0 -810 2 -1861 3 -2337 2
-476 1 -1094 -2 -1373 l-6 -509 -139 107 c-408 314 -958 691 -1328 912 -689
412 -1105 622 -1834 924 l-251 104 -6 140 c-8 168 -9 6725 -2 6725 3 0 56 -30
118 -67z"/>
<path d="M13317 18038 c-40 -62 -145 -210 -232 -328 -161 -218 -396 -567 -561
-830 -112 -180 -314 -532 -314 -548 0 -7 37 16 83 49 237 177 478 320 837 496
140 69 263 133 273 141 16 14 17 54 17 562 0 467 -2 549 -15 560 -12 10 -26
-7 -88 -102z"/>
<path d="M13260 7544 c-81 -99 -151 -207 -205 -319 -95 -194 -119 -300 -119
-515 1 -134 4 -168 26 -251 30 -110 67 -189 131 -275 73 -99 236 -229 214
-170 -3 8 -11 81 -18 163 -19 237 -2 886 36 1351 7 90 -3 92 -65 16z"/>
<path d="M21192 15283 c-62 -201 -93 -413 -99 -688 -15 -602 93 -990 411
-1479 259 -398 665 -752 1102 -961 325 -156 694 -262 1044 -300 132 -14 590
-21 590 -9 0 3 -53 70 -118 148 -146 173 -200 241 -232 286 -14 19 -137 170
-275 336 -137 165 -308 372 -380 459 -71 88 -164 197 -206 244 -41 48 -135
158 -209 246 -74 88 -139 165 -145 170 -12 10 -320 366 -495 571 -52 62 -176
201 -275 310 -165 180 -221 245 -468 534 -121 142 -201 230 -209 230 -3 0 -20
-44 -36 -97z"/>
<path d="M3772 31629 c-297 -8 -359 -17 -409 -55 -101 -77 -134 -319 -98 -717
8 -89 19 -221 24 -294 6 -84 15 -142 25 -162 38 -73 128 -93 761 -166 1109
-130 1699 -253 2170 -455 408 -174 691 -414 893 -755 182 -308 317 -840 402
-1589 29 -250 38 -418 60 -1051 11 -313 25 -651 30 -750 5 -102 10 -1173 10
-2471 l0 -2292 93 -48 c241 -124 528 -321 797 -544 158 -132 510 -483 661
-660 152 -178 261 -325 433 -588 278 -424 450 -751 663 -1262 72 -172 197
-534 239 -690 15 -55 30 -100 34 -100 12 0 31 33 146 251 165 314 476 832 794
1324 64 99 204 315 310 480 240 371 324 496 505 750 78 110 203 286 277 390
168 237 295 412 458 630 70 94 180 242 246 330 l119 160 7 2330 c9 3251 16
3447 137 4175 51 301 116 535 207 745 3 7 -114 10 -338 11 -251 1 -378 5 -474
17 -727 90 -1479 408 -2058 871 -433 346 -748 710 -1061 1226 -111 183 -261
502 -319 678 l-28 82 -336 0 c-291 0 -857 16 -1257 35 -458 22 -983 48 -1290
65 -1334 73 -2182 111 -2422 108 -76 0 -261 -5 -411 -9z"/>
<path d="M16816 31608 c-3 -7 -10 -71 -16 -143 -34 -397 -167 -851 -353 -1207
-33 -65 -59 -120 -56 -122 2 -2 24 -1 50 4 114 21 498 73 854 115 258 30 397
51 412 61 46 29 55 57 64 196 19 309 7 652 -32 888 -24 142 -39 182 -77 201
-40 20 -840 27 -846 7z"/>
<path d="M15099 31536 c-13 -13 -661 -62 -1014 -76 -672 -26 -877 -31 -1682
-37 -524 -4 -863 -10 -863 -16 0 -17 112 -180 193 -281 96 -120 272 -298 377
-382 322 -258 710 -430 1105 -490 148 -22 423 -22 570 0 451 69 817 270 1060
581 174 223 281 446 321 668 6 37 6 37 -28 37 -19 0 -37 -2 -39 -4z"/>
<path d="M7676 16302 c1 -2161 12 -5694 19 -5700 1 -2 6 21 10 50 41 315 249
1037 521 1813 330 945 497 1489 573 1870 54 269 63 367 68 710 11 723 -44
1091 -252 1705 -210 616 -445 1059 -790 1490 -64 80 -124 153 -133 162 -16 16
-17 -106 -16 -2100z"/>
</g>
</svg>
